    <svg
      xmlns="http://www.w3.org/2000/svg"
      width="800px"
      height="800px"
      viewBox="0 0 1024 1024"
      className="icon"
      version="1.1"
    >
      <path
        d="M882.424 914.44c0 45-170.744 81.496-381.352 81.496-210.608 0-381.336-36.496-381.336-81.496 0-45.008 175.072-78.504 385.68-78.504 210.608-0.008 377.008 33.496 377.008 78.504z"
        fill="#B8CBCD"
      />
      <path
        d="M454.008 973.448c-45.296 0-87.44-17.272-119.024-48.856-32.344-32.344-49.248-75.928-47.6-122.736 1.608-45.504 20.424-88.488 52.976-121.04L717.112 304.08c22.832-22.832 34.752-53.768 33.576-87.104-1.176-33.32-15.008-64.848-38.952-88.8-48.608-48.592-121.904-48.6-170.52 0L298.392 371a23.984 23.984 0 0 1-33.936 0 23.984 23.984 0 0 1 0-33.936L507.28 94.24c66.84-66.832 171.56-66.832 238.392 0 32.56 32.552 51.376 75.536 52.984 121.04 1.648 46.8-15.256 90.384-47.608 122.736L374.304 714.752c-23.936 23.944-37.768 55.48-38.952 88.8-1.176 33.344 10.744 64.272 33.568 87.104 23.08 23.08 54.216 35.672 87.632 34.768a128.224 128.224 0 0 0 88.56-37.736l151.336-151.328a24 24 0 1 1 33.936 33.936l-151.328 151.328a175.992 175.992 0 0 1-125.048 51.824z"
        fill="#783741"
      />
      <path
        d="M165.456 561.72c-14.056 14.056-44.888 6.024-68.848-17.944-23.968-23.968-32-54.792-17.944-68.856l149.688-133.152c14.056-14.056 36.616-14.288 60.584 9.68 23.968 23.968 23.736 46.52 9.672 60.584L165.456 561.72z"
        fill="#FFBAB0"
      />
      <path
        d="M146.656 592.64c-22 0-47.056-11.92-67.024-31.896-34.416-34.416-42.128-78.6-17.936-102.792a16.4 16.4 0 0 1 1.016-0.96L211.944 324.24c10.68-10.4 24.536-16.12 39.104-16.12 13.008 0 33.08 4.568 54.856 26.352 35.672 35.664 30.88 72.744 10.232 93.96L183.392 577.672a23.28 23.28 0 0 1-0.968 1.024c-9.128 9.12-21.496 13.944-35.768 13.944z m-51.048-100.664c-1.08 3.184 1.936 18.792 17.968 34.832 12.32 12.32 25.496 17.832 33.088 17.832 1.04 0 1.688-0.112 2.04-0.192L280.68 396.08a28.8 28.8 0 0 1 0.96-1.016c7.664-7.664-4.216-21.184-9.672-26.648-7.696-7.696-15.52-12.288-20.92-12.288-1.448 0-3.408 0.296-5.728 2.608a16.4 16.4 0 0 1-1.016 0.96L95.608 491.976z"
        fill="#783741"
      />
      <path
        d="M165.456 577.72a16 16 0 0 1-11.312-27.312c5.632-5.632 1.352-26.936-17.936-46.224-19.28-19.28-40.584-23.56-46.224-17.944a16 16 0 1 1-22.624-22.624c20.616-20.624 60.8-12.736 91.48 17.944 30.672 30.672 38.56 70.856 17.944 91.48a16.048 16.048 0 0 1-11.328 4.68z"
        fill="#783741"
      />
      <path
        d="M819.704 552.04c14.056-14.056 44.888-6.024 68.848 17.944 23.968 23.968 32.008 54.792 17.944 68.848L756.808 771.992c-14.056 14.056-36.616 14.288-60.584-9.68-23.968-23.968-23.736-46.52-9.68-60.584l133.16-149.688z"
        fill="#FFBAB0"
      />
      <path
        d="M734.112 805.632c-13.008 0-33.08-4.568-54.856-26.352-35.672-35.664-30.88-72.744-10.232-93.96l132.752-149.232a23.28 23.28 0 0 1 0.968-1.024c9.128-9.12 21.496-13.944 35.768-13.944 22 0 47.056 11.92 67.024 31.896 34.416 34.416 42.128 78.6 17.936 102.792a16.4 16.4 0 0 1-1.016 0.96L773.216 789.512c-10.68 10.4-24.536 16.12-39.104 16.12z m102.344-236.32L704.48 717.68a28.8 28.8 0 0 1-0.96 1.016c-7.664 7.664 4.216 21.184 9.672 26.648 7.696 7.696 15.52 12.288 20.92 12.288 1.448 0 3.408-0.296 5.728-2.608a16.4 16.4 0 0 1 1.016-0.96l148.696-132.28c1.08-3.184-1.936-18.792-17.968-34.832-12.32-12.32-25.496-17.832-33.088-17.832a8.72 8.72 0 0 0-2.04 0.192z"
        fill="#783741"
      />
      <path
        d="M887.816 661.624c-19.48 0-42.336-10.272-61.48-29.424-30.68-30.672-38.56-70.856-17.944-91.48a16 16 0 0 1 22.64 22.624c-5.632 5.632-1.344 26.936 17.936 46.224 19.28 19.28 40.592 23.568 46.224 17.944a16 16 0 1 1 22.624 22.624c-7.752 7.76-18.272 11.488-30 11.488z"
        fill="#783741"
      />
    </svg>